<mxfile host="Electron" modified="2024-12-09T07:33:22.389Z" agent="Mozilla/5.0 (Macintosh; Intel Mac OS X 10_15_7) AppleWebKit/537.36 (KHTML, like Gecko) draw.io/21.7.5 Chrome/114.0.5735.289 Electron/25.8.1 Safari/537.36" etag="wMbLtpXIPuexWI11bXaG" version="21.7.5" type="device" pages="2">
  <diagram name="EC2-Storages" id="G_CHjdmCJaaQ3iFuZoHp">
    <mxGraphModel dx="954" dy="592" grid="1" gridSize="10" guides="1" tooltips="1" connect="1" arrows="1" fold="1" page="1" pageScale="1" pageWidth="850" pageHeight="1100" math="0" shadow="0">
      <root>
        <mxCell id="0" />
        <mxCell id="1" parent="0" />
        <mxCell id="xiG8RPjTWd2qOB_Zj-ri-11" value="Object" style="rounded=0;whiteSpace=wrap;html=1;verticalAlign=top;fillColor=#333333;fontColor=#ffffff;" vertex="1" parent="1">
          <mxGeometry x="780" y="1079" width="120" height="160" as="geometry" />
        </mxCell>
        <mxCell id="xiG8RPjTWd2qOB_Zj-ri-9" value="File" style="rounded=0;whiteSpace=wrap;html=1;verticalAlign=top;fillColor=#333333;fontColor=#ffffff;" vertex="1" parent="1">
          <mxGeometry x="160" y="1079" width="601" height="160" as="geometry" />
        </mxCell>
        <mxCell id="xiG8RPjTWd2qOB_Zj-ri-8" value="Block" style="rounded=0;whiteSpace=wrap;html=1;verticalAlign=top;fillColor=#333333;fontColor=#ffffff;" vertex="1" parent="1">
          <mxGeometry x="19" y="1080" width="120" height="160" as="geometry" />
        </mxCell>
        <mxCell id="s1nMa247mtAlFGXpFqj7-31" value="Security Group" style="fontStyle=0;verticalAlign=top;align=center;spacingTop=-2;fillColor=none;rounded=0;whiteSpace=wrap;html=1;strokeColor=#FF0000;strokeWidth=2;dashed=1;container=1;collapsible=0;expand=0;recursiveResize=0;" parent="1" vertex="1">
          <mxGeometry x="365" y="590" width="120" height="140" as="geometry" />
        </mxCell>
        <mxCell id="s1nMa247mtAlFGXpFqj7-6" value="AZ b" style="fillColor=none;strokeColor=#147EBA;dashed=1;verticalAlign=top;fontStyle=0;fontColor=#147EBA;whiteSpace=wrap;html=1;" parent="s1nMa247mtAlFGXpFqj7-31" vertex="1">
          <mxGeometry x="-36" y="-49" width="184" height="170" as="geometry" />
        </mxCell>
        <mxCell id="s1nMa247mtAlFGXpFqj7-29" value="Security Group" style="fontStyle=0;verticalAlign=top;align=center;spacingTop=-2;fillColor=none;rounded=0;whiteSpace=wrap;html=1;strokeColor=#FF0000;strokeWidth=2;dashed=1;container=1;collapsible=0;expand=0;recursiveResize=0;" parent="1" vertex="1">
          <mxGeometry x="160" y="590" width="120" height="140" as="geometry" />
        </mxCell>
        <mxCell id="s1nMa247mtAlFGXpFqj7-2" value="Security Group" style="fontStyle=0;verticalAlign=top;align=center;spacingTop=-2;fillColor=none;rounded=0;whiteSpace=wrap;html=1;strokeColor=#FF0000;strokeWidth=2;dashed=1;container=1;collapsible=0;expand=0;recursiveResize=0;" parent="1" vertex="1">
          <mxGeometry x="261" y="765" width="320" height="150" as="geometry" />
        </mxCell>
        <mxCell id="s1nMa247mtAlFGXpFqj7-33" value="" style="outlineConnect=0;dashed=0;verticalLabelPosition=bottom;verticalAlign=top;align=center;html=1;shape=mxgraph.aws3.efs_share;fillColor=#E05243;gradientColor=none;" parent="s1nMa247mtAlFGXpFqj7-2" vertex="1">
          <mxGeometry x="125.5" y="65" width="69" height="63" as="geometry" />
        </mxCell>
        <mxCell id="s1nMa247mtAlFGXpFqj7-8" value="AZ c" style="fillColor=none;strokeColor=#147EBA;dashed=1;verticalAlign=top;fontStyle=0;fontColor=#147EBA;whiteSpace=wrap;html=1;" parent="1" vertex="1">
          <mxGeometry x="564" y="541" width="184" height="170" as="geometry" />
        </mxCell>
        <mxCell id="s1nMa247mtAlFGXpFqj7-4" value="AZ a" style="fillColor=none;strokeColor=#147EBA;dashed=1;verticalAlign=top;fontStyle=0;fontColor=#147EBA;whiteSpace=wrap;html=1;" parent="1" vertex="1">
          <mxGeometry x="126" y="541" width="184" height="170" as="geometry" />
        </mxCell>
        <mxCell id="s1nMa247mtAlFGXpFqj7-11" style="edgeStyle=orthogonalEdgeStyle;rounded=0;orthogonalLoop=1;jettySize=auto;html=1;startArrow=classic;startFill=1;entryX=0.5;entryY=0;entryDx=0;entryDy=0;entryPerimeter=0;" parent="1" source="s1nMa247mtAlFGXpFqj7-3" target="s1nMa247mtAlFGXpFqj7-33" edge="1">
          <mxGeometry relative="1" as="geometry">
            <mxPoint x="421" y="811" as="targetPoint" />
            <Array as="points">
              <mxPoint x="218" y="741" />
              <mxPoint x="421" y="741" />
            </Array>
          </mxGeometry>
        </mxCell>
        <mxCell id="s1nMa247mtAlFGXpFqj7-3" value="EC2 instance" style="sketch=0;points=[[0,0,0],[0.25,0,0],[0.5,0,0],[0.75,0,0],[1,0,0],[0,1,0],[0.25,1,0],[0.5,1,0],[0.75,1,0],[1,1,0],[0,0.25,0],[0,0.5,0],[0,0.75,0],[1,0.25,0],[1,0.5,0],[1,0.75,0]];outlineConnect=0;fontColor=#232F3E;fillColor=#ED7100;strokeColor=#ffffff;dashed=0;verticalLabelPosition=bottom;verticalAlign=top;align=center;html=1;fontSize=12;fontStyle=0;aspect=fixed;shape=mxgraph.aws4.resourceIcon;resIcon=mxgraph.aws4.ec2;" parent="1" vertex="1">
          <mxGeometry x="179" y="611" width="78" height="78" as="geometry" />
        </mxCell>
        <mxCell id="s1nMa247mtAlFGXpFqj7-12" style="edgeStyle=orthogonalEdgeStyle;rounded=0;orthogonalLoop=1;jettySize=auto;html=1;startArrow=classic;startFill=1;entryX=0.5;entryY=0;entryDx=0;entryDy=0;entryPerimeter=0;" parent="1" source="s1nMa247mtAlFGXpFqj7-5" target="s1nMa247mtAlFGXpFqj7-33" edge="1">
          <mxGeometry relative="1" as="geometry">
            <mxPoint x="421" y="811" as="targetPoint" />
          </mxGeometry>
        </mxCell>
        <mxCell id="s1nMa247mtAlFGXpFqj7-5" value="" style="sketch=0;points=[[0,0,0],[0.25,0,0],[0.5,0,0],[0.75,0,0],[1,0,0],[0,1,0],[0.25,1,0],[0.5,1,0],[0.75,1,0],[1,1,0],[0,0.25,0],[0,0.5,0],[0,0.75,0],[1,0.25,0],[1,0.5,0],[1,0.75,0]];outlineConnect=0;fontColor=#232F3E;fillColor=#ED7100;strokeColor=#ffffff;dashed=0;verticalLabelPosition=bottom;verticalAlign=top;align=center;html=1;fontSize=12;fontStyle=0;aspect=fixed;shape=mxgraph.aws4.resourceIcon;resIcon=mxgraph.aws4.ec2;" parent="1" vertex="1">
          <mxGeometry x="382" y="611" width="78" height="78" as="geometry" />
        </mxCell>
        <mxCell id="s1nMa247mtAlFGXpFqj7-13" style="edgeStyle=orthogonalEdgeStyle;rounded=0;orthogonalLoop=1;jettySize=auto;html=1;startArrow=classic;startFill=1;entryX=0.5;entryY=0;entryDx=0;entryDy=0;entryPerimeter=0;" parent="1" source="s1nMa247mtAlFGXpFqj7-7" target="s1nMa247mtAlFGXpFqj7-33" edge="1">
          <mxGeometry relative="1" as="geometry">
            <mxPoint x="421" y="811" as="targetPoint" />
            <Array as="points">
              <mxPoint x="656" y="741" />
              <mxPoint x="421" y="741" />
            </Array>
          </mxGeometry>
        </mxCell>
        <mxCell id="s1nMa247mtAlFGXpFqj7-7" value="" style="sketch=0;points=[[0,0,0],[0.25,0,0],[0.5,0,0],[0.75,0,0],[1,0,0],[0,1,0],[0.25,1,0],[0.5,1,0],[0.75,1,0],[1,1,0],[0,0.25,0],[0,0.5,0],[0,0.75,0],[1,0.25,0],[1,0.5,0],[1,0.75,0]];outlineConnect=0;fontColor=#232F3E;fillColor=#ED7100;strokeColor=#ffffff;dashed=0;verticalLabelPosition=bottom;verticalAlign=top;align=center;html=1;fontSize=12;fontStyle=0;aspect=fixed;shape=mxgraph.aws4.resourceIcon;resIcon=mxgraph.aws4.ec2;" parent="1" vertex="1">
          <mxGeometry x="617" y="611" width="78" height="78" as="geometry" />
        </mxCell>
        <mxCell id="s1nMa247mtAlFGXpFqj7-14" value="Availability Zone a" style="fillColor=none;strokeColor=#147EBA;dashed=1;verticalAlign=top;fontStyle=0;fontColor=#147EBA;whiteSpace=wrap;html=1;" parent="1" vertex="1">
          <mxGeometry x="110" y="30" width="160" height="280" as="geometry" />
        </mxCell>
        <mxCell id="s1nMa247mtAlFGXpFqj7-21" style="edgeStyle=orthogonalEdgeStyle;rounded=0;orthogonalLoop=1;jettySize=auto;html=1;entryX=0.5;entryY=0;entryDx=0;entryDy=0;entryPerimeter=0;startArrow=classic;startFill=1;" parent="1" source="s1nMa247mtAlFGXpFqj7-16" target="s1nMa247mtAlFGXpFqj7-19" edge="1">
          <mxGeometry relative="1" as="geometry" />
        </mxCell>
        <mxCell id="s1nMa247mtAlFGXpFqj7-16" value="EC1 instance" style="sketch=0;points=[[0,0,0],[0.25,0,0],[0.5,0,0],[0.75,0,0],[1,0,0],[0,1,0],[0.25,1,0],[0.5,1,0],[0.75,1,0],[1,1,0],[0,0.25,0],[0,0.5,0],[0,0.75,0],[1,0.25,0],[1,0.5,0],[1,0.75,0]];outlineConnect=0;fontColor=#232F3E;fillColor=#ED7100;strokeColor=#ffffff;dashed=0;verticalLabelPosition=bottom;verticalAlign=top;align=center;html=1;fontSize=12;fontStyle=0;aspect=fixed;shape=mxgraph.aws4.resourceIcon;resIcon=mxgraph.aws4.ec2;" parent="1" vertex="1">
          <mxGeometry x="151" y="76" width="78" height="78" as="geometry" />
        </mxCell>
        <mxCell id="s1nMa247mtAlFGXpFqj7-27" value="snapshot" style="edgeStyle=orthogonalEdgeStyle;rounded=0;orthogonalLoop=1;jettySize=auto;html=1;entryX=-0.018;entryY=0.539;entryDx=0;entryDy=0;entryPerimeter=0;" parent="1" source="s1nMa247mtAlFGXpFqj7-19" target="s1nMa247mtAlFGXpFqj7-26" edge="1">
          <mxGeometry relative="1" as="geometry">
            <Array as="points">
              <mxPoint x="190" y="382" />
            </Array>
          </mxGeometry>
        </mxCell>
        <mxCell id="s1nMa247mtAlFGXpFqj7-19" value="EBS" style="outlineConnect=0;dashed=0;verticalLabelPosition=bottom;verticalAlign=top;align=center;html=1;shape=mxgraph.aws3.volume;fillColor=#E05243;gradientColor=none;" parent="1" vertex="1">
          <mxGeometry x="163.75" y="210" width="52.5" height="75" as="geometry" />
        </mxCell>
        <mxCell id="s1nMa247mtAlFGXpFqj7-22" value="Availability Zone b" style="fillColor=none;strokeColor=#147EBA;dashed=1;verticalAlign=top;fontStyle=0;fontColor=#147EBA;whiteSpace=wrap;html=1;" parent="1" vertex="1">
          <mxGeometry x="357" y="30" width="160" height="280" as="geometry" />
        </mxCell>
        <mxCell id="s1nMa247mtAlFGXpFqj7-23" style="edgeStyle=orthogonalEdgeStyle;rounded=0;orthogonalLoop=1;jettySize=auto;html=1;entryX=0.5;entryY=0;entryDx=0;entryDy=0;entryPerimeter=0;startArrow=classic;startFill=1;" parent="1" source="s1nMa247mtAlFGXpFqj7-24" target="s1nMa247mtAlFGXpFqj7-25" edge="1">
          <mxGeometry relative="1" as="geometry" />
        </mxCell>
        <mxCell id="s1nMa247mtAlFGXpFqj7-24" value="EC2 instance" style="sketch=0;points=[[0,0,0],[0.25,0,0],[0.5,0,0],[0.75,0,0],[1,0,0],[0,1,0],[0.25,1,0],[0.5,1,0],[0.75,1,0],[1,1,0],[0,0.25,0],[0,0.5,0],[0,0.75,0],[1,0.25,0],[1,0.5,0],[1,0.75,0]];outlineConnect=0;fontColor=#232F3E;fillColor=#ED7100;strokeColor=#ffffff;dashed=0;verticalLabelPosition=bottom;verticalAlign=top;align=center;html=1;fontSize=12;fontStyle=0;aspect=fixed;shape=mxgraph.aws4.resourceIcon;resIcon=mxgraph.aws4.ec2;" parent="1" vertex="1">
          <mxGeometry x="398" y="76" width="78" height="78" as="geometry" />
        </mxCell>
        <mxCell id="s1nMa247mtAlFGXpFqj7-25" value="EBS" style="outlineConnect=0;dashed=0;verticalLabelPosition=bottom;verticalAlign=top;align=center;html=1;shape=mxgraph.aws3.volume;fillColor=#E05243;gradientColor=none;" parent="1" vertex="1">
          <mxGeometry x="410.75" y="210" width="52.5" height="75" as="geometry" />
        </mxCell>
        <mxCell id="s1nMa247mtAlFGXpFqj7-28" value="restore" style="edgeStyle=orthogonalEdgeStyle;rounded=0;orthogonalLoop=1;jettySize=auto;html=1;" parent="1" source="s1nMa247mtAlFGXpFqj7-26" target="s1nMa247mtAlFGXpFqj7-25" edge="1">
          <mxGeometry relative="1" as="geometry" />
        </mxCell>
        <mxCell id="s1nMa247mtAlFGXpFqj7-26" value="EBS snapshot" style="sketch=0;outlineConnect=0;fontColor=#232F3E;gradientColor=none;fillColor=#7AA116;strokeColor=none;dashed=0;verticalLabelPosition=bottom;verticalAlign=top;align=center;html=1;fontSize=12;fontStyle=0;aspect=fixed;pointerEvents=1;shape=mxgraph.aws4.snapshot;" parent="1" vertex="1">
          <mxGeometry x="280" y="340" width="56" height="78" as="geometry" />
        </mxCell>
        <mxCell id="s1nMa247mtAlFGXpFqj7-32" value="Security Group" style="fontStyle=0;verticalAlign=top;align=center;spacingTop=-2;fillColor=none;rounded=0;whiteSpace=wrap;html=1;strokeColor=#FF0000;strokeWidth=2;dashed=1;container=1;collapsible=0;expand=0;recursiveResize=0;" parent="1" vertex="1">
          <mxGeometry x="596" y="590" width="120" height="140" as="geometry" />
        </mxCell>
        <mxCell id="xiG8RPjTWd2qOB_Zj-ri-1" value="Amazon&lt;br&gt;EFS" style="sketch=0;points=[[0,0,0],[0.25,0,0],[0.5,0,0],[0.75,0,0],[1,0,0],[0,1,0],[0.25,1,0],[0.5,1,0],[0.75,1,0],[1,1,0],[0,0.25,0],[0,0.5,0],[0,0.75,0],[1,0.25,0],[1,0.5,0],[1,0.75,0]];outlineConnect=0;fontColor=#FFFFFF;fillColor=#7AA116;strokeColor=#ffffff;dashed=0;verticalLabelPosition=bottom;verticalAlign=top;align=center;html=1;fontSize=12;fontStyle=0;aspect=fixed;shape=mxgraph.aws4.resourceIcon;resIcon=mxgraph.aws4.elastic_file_system;" vertex="1" parent="1">
          <mxGeometry x="181" y="1119" width="78" height="78" as="geometry" />
        </mxCell>
        <mxCell id="xiG8RPjTWd2qOB_Zj-ri-2" value="Amazon FSx for&lt;br&gt;Window File Server" style="sketch=0;points=[[0,0,0],[0.25,0,0],[0.5,0,0],[0.75,0,0],[1,0,0],[0,1,0],[0.25,1,0],[0.5,1,0],[0.75,1,0],[1,1,0],[0,0.25,0],[0,0.5,0],[0,0.75,0],[1,0.25,0],[1,0.5,0],[1,0.75,0]];outlineConnect=0;fontColor=#FFFFFF;fillColor=#7AA116;strokeColor=#ffffff;dashed=0;verticalLabelPosition=bottom;verticalAlign=top;align=center;html=1;fontSize=12;fontStyle=0;aspect=fixed;shape=mxgraph.aws4.resourceIcon;resIcon=mxgraph.aws4.fsx_for_windows_file_server;" vertex="1" parent="1">
          <mxGeometry x="421" y="1119" width="78" height="78" as="geometry" />
        </mxCell>
        <mxCell id="xiG8RPjTWd2qOB_Zj-ri-3" value="Amazon FSx for&lt;br&gt;Lustre" style="sketch=0;points=[[0,0,0],[0.25,0,0],[0.5,0,0],[0.75,0,0],[1,0,0],[0,1,0],[0.25,1,0],[0.5,1,0],[0.75,1,0],[1,1,0],[0,0.25,0],[0,0.5,0],[0,0.75,0],[1,0.25,0],[1,0.5,0],[1,0.75,0]];outlineConnect=0;fontColor=#FFFFFF;fillColor=#7AA116;strokeColor=#ffffff;dashed=0;verticalLabelPosition=bottom;verticalAlign=top;align=center;html=1;fontSize=12;fontStyle=0;aspect=fixed;shape=mxgraph.aws4.resourceIcon;resIcon=mxgraph.aws4.fsx_for_lustre;" vertex="1" parent="1">
          <mxGeometry x="301" y="1119" width="78" height="78" as="geometry" />
        </mxCell>
        <mxCell id="xiG8RPjTWd2qOB_Zj-ri-4" value="Amazon FSx for&lt;br&gt;NetApp ONTAP" style="sketch=0;points=[[0,0,0],[0.25,0,0],[0.5,0,0],[0.75,0,0],[1,0,0],[0,1,0],[0.25,1,0],[0.5,1,0],[0.75,1,0],[1,1,0],[0,0.25,0],[0,0.5,0],[0,0.75,0],[1,0.25,0],[1,0.5,0],[1,0.75,0]];outlineConnect=0;fontColor=#FFFFFF;fillColor=#7AA116;strokeColor=#ffffff;dashed=0;verticalLabelPosition=bottom;verticalAlign=top;align=center;html=1;fontSize=12;fontStyle=0;aspect=fixed;shape=mxgraph.aws4.resourceIcon;resIcon=mxgraph.aws4.fsx_for_netapp_ontap;" vertex="1" parent="1">
          <mxGeometry x="541" y="1119" width="78" height="78" as="geometry" />
        </mxCell>
        <mxCell id="xiG8RPjTWd2qOB_Zj-ri-5" value="Amazon FSx for&lt;br&gt;OpenZFS" style="sketch=0;points=[[0,0,0],[0.25,0,0],[0.5,0,0],[0.75,0,0],[1,0,0],[0,1,0],[0.25,1,0],[0.5,1,0],[0.75,1,0],[1,1,0],[0,0.25,0],[0,0.5,0],[0,0.75,0],[1,0.25,0],[1,0.5,0],[1,0.75,0]];outlineConnect=0;fontColor=#FFFFFF;fillColor=#7AA116;strokeColor=#ffffff;dashed=0;verticalLabelPosition=bottom;verticalAlign=top;align=center;html=1;fontSize=12;fontStyle=0;aspect=fixed;shape=mxgraph.aws4.resourceIcon;resIcon=mxgraph.aws4.fsx_for_openzfs;" vertex="1" parent="1">
          <mxGeometry x="661" y="1119" width="78" height="78" as="geometry" />
        </mxCell>
        <mxCell id="xiG8RPjTWd2qOB_Zj-ri-6" value="Amazon&lt;br&gt;EBS" style="sketch=0;points=[[0,0,0],[0.25,0,0],[0.5,0,0],[0.75,0,0],[1,0,0],[0,1,0],[0.25,1,0],[0.5,1,0],[0.75,1,0],[1,1,0],[0,0.25,0],[0,0.5,0],[0,0.75,0],[1,0.25,0],[1,0.5,0],[1,0.75,0]];outlineConnect=0;fontColor=#ffffff;fillColor=#7AA116;strokeColor=#ffffff;dashed=0;verticalLabelPosition=bottom;verticalAlign=top;align=center;html=1;fontSize=12;fontStyle=0;aspect=fixed;shape=mxgraph.aws4.resourceIcon;resIcon=mxgraph.aws4.elastic_block_store;" vertex="1" parent="1">
          <mxGeometry x="40" y="1120" width="78" height="78" as="geometry" />
        </mxCell>
        <mxCell id="xiG8RPjTWd2qOB_Zj-ri-7" value="Amazon S3&lt;br&gt;and S3 Glacier" style="sketch=0;points=[[0,0,0],[0.25,0,0],[0.5,0,0],[0.75,0,0],[1,0,0],[0,1,0],[0.25,1,0],[0.5,1,0],[0.75,1,0],[1,1,0],[0,0.25,0],[0,0.5,0],[0,0.75,0],[1,0.25,0],[1,0.5,0],[1,0.75,0]];outlineConnect=0;fontColor=#FFFFFF;fillColor=#7AA116;strokeColor=#ffffff;dashed=0;verticalLabelPosition=bottom;verticalAlign=top;align=center;html=1;fontSize=12;fontStyle=0;aspect=fixed;shape=mxgraph.aws4.resourceIcon;resIcon=mxgraph.aws4.s3;" vertex="1" parent="1">
          <mxGeometry x="801" y="1119" width="78" height="78" as="geometry" />
        </mxCell>
      </root>
    </mxGraphModel>
  </diagram>
  <diagram id="GqiY_Wt1lA8W7cHhVsnu" name="Load Balancer">
    <mxGraphModel dx="954" dy="592" grid="1" gridSize="10" guides="1" tooltips="1" connect="1" arrows="1" fold="1" page="1" pageScale="1" pageWidth="850" pageHeight="1100" math="0" shadow="0">
      <root>
        <mxCell id="0" />
        <mxCell id="1" parent="0" />
        <mxCell id="WtT8hOTgRpXNHZC3K_eX-30" value="With Cross-Zone Balancing" style="rounded=0;whiteSpace=wrap;html=1;verticalAlign=bottom;" vertex="1" parent="1">
          <mxGeometry x="120" y="1320" width="390" height="380" as="geometry" />
        </mxCell>
        <mxCell id="08-Z56SP4-U3Yru6_U8v-7" style="edgeStyle=orthogonalEdgeStyle;rounded=0;orthogonalLoop=1;jettySize=auto;html=1;entryX=0;entryY=0.5;entryDx=0;entryDy=0;startArrow=classic;startFill=1;" parent="1" source="08-Z56SP4-U3Yru6_U8v-3" target="08-Z56SP4-U3Yru6_U8v-5" edge="1">
          <mxGeometry relative="1" as="geometry" />
        </mxCell>
        <mxCell id="08-Z56SP4-U3Yru6_U8v-3" value="ALB Security group&lt;br&gt;&lt;br&gt;in: 0.0.0.0/0" style="fillColor=none;strokeColor=#DD3522;verticalAlign=top;fontStyle=0;fontColor=#DD3522;whiteSpace=wrap;html=1;" parent="1" vertex="1">
          <mxGeometry x="254" y="47" width="130" height="163" as="geometry" />
        </mxCell>
        <mxCell id="08-Z56SP4-U3Yru6_U8v-1" value="ALB" style="sketch=0;points=[[0,0,0],[0.25,0,0],[0.5,0,0],[0.75,0,0],[1,0,0],[0,1,0],[0.25,1,0],[0.5,1,0],[0.75,1,0],[1,1,0],[0,0.25,0],[0,0.5,0],[0,0.75,0],[1,0.25,0],[1,0.5,0],[1,0.75,0]];outlineConnect=0;fontColor=#232F3E;fillColor=#8C4FFF;strokeColor=#ffffff;dashed=0;verticalLabelPosition=bottom;verticalAlign=top;align=center;html=1;fontSize=12;fontStyle=0;aspect=fixed;shape=mxgraph.aws4.resourceIcon;resIcon=mxgraph.aws4.elastic_load_balancing;" parent="1" vertex="1">
          <mxGeometry x="280" y="104" width="78" height="78" as="geometry" />
        </mxCell>
        <mxCell id="08-Z56SP4-U3Yru6_U8v-4" style="edgeStyle=orthogonalEdgeStyle;rounded=0;orthogonalLoop=1;jettySize=auto;html=1;entryX=0;entryY=0.5;entryDx=0;entryDy=0;startArrow=classic;startFill=1;" parent="1" source="08-Z56SP4-U3Yru6_U8v-2" target="08-Z56SP4-U3Yru6_U8v-3" edge="1">
          <mxGeometry relative="1" as="geometry" />
        </mxCell>
        <mxCell id="08-Z56SP4-U3Yru6_U8v-2" value="User" style="html=1;verticalLabelPosition=bottom;align=center;labelBackgroundColor=#ffffff;verticalAlign=top;strokeWidth=2;strokeColor=#0080F0;shadow=0;dashed=0;shape=mxgraph.ios7.icons.user;" parent="1" vertex="1">
          <mxGeometry x="60" y="113.5" width="30" height="30" as="geometry" />
        </mxCell>
        <mxCell id="08-Z56SP4-U3Yru6_U8v-5" value="Security group&lt;br&gt;&lt;br&gt;in: ALB security group" style="fillColor=none;strokeColor=#DD3522;verticalAlign=top;fontStyle=0;fontColor=#DD3522;whiteSpace=wrap;html=1;" parent="1" vertex="1">
          <mxGeometry x="550" y="47" width="130" height="163" as="geometry" />
        </mxCell>
        <mxCell id="08-Z56SP4-U3Yru6_U8v-6" value="EC2" style="sketch=0;points=[[0,0,0],[0.25,0,0],[0.5,0,0],[0.75,0,0],[1,0,0],[0,1,0],[0.25,1,0],[0.5,1,0],[0.75,1,0],[1,1,0],[0,0.25,0],[0,0.5,0],[0,0.75,0],[1,0.25,0],[1,0.5,0],[1,0.75,0]];outlineConnect=0;fontColor=#232F3E;fillColor=#ED7100;strokeColor=#ffffff;dashed=0;verticalLabelPosition=bottom;verticalAlign=top;align=center;html=1;fontSize=12;fontStyle=0;aspect=fixed;shape=mxgraph.aws4.resourceIcon;resIcon=mxgraph.aws4.ec2;" parent="1" vertex="1">
          <mxGeometry x="576" y="104" width="78" height="78" as="geometry" />
        </mxCell>
        <mxCell id="08-Z56SP4-U3Yru6_U8v-8" value="On-Premise - Target group 2" style="sketch=0;outlineConnect=0;gradientColor=none;html=1;whiteSpace=wrap;fontSize=12;fontStyle=0;shape=mxgraph.aws4.group;grIcon=mxgraph.aws4.group_on_premise;strokeColor=#AAB7B8;fillColor=none;verticalAlign=top;align=left;spacingLeft=30;fontColor=#AAB7B8;dashed=0;" parent="1" vertex="1">
          <mxGeometry x="540" y="460" width="200" height="130" as="geometry" />
        </mxCell>
        <mxCell id="08-Z56SP4-U3Yru6_U8v-11" value="Target Grouop 1" style="sketch=0;outlineConnect=0;gradientColor=none;html=1;whiteSpace=wrap;fontSize=12;fontStyle=0;shape=mxgraph.aws4.group;grIcon=mxgraph.aws4.group_aws_cloud;strokeColor=#AAB7B8;fillColor=none;verticalAlign=top;align=left;spacingLeft=30;fontColor=#AAB7B8;dashed=0;" parent="1" vertex="1">
          <mxGeometry x="540" y="310" width="200" height="130" as="geometry" />
        </mxCell>
        <mxCell id="08-Z56SP4-U3Yru6_U8v-12" value="EC2" style="sketch=0;points=[[0,0,0],[0.25,0,0],[0.5,0,0],[0.75,0,0],[1,0,0],[0,1,0],[0.25,1,0],[0.5,1,0],[0.75,1,0],[1,1,0],[0,0.25,0],[0,0.5,0],[0,0.75,0],[1,0.25,0],[1,0.5,0],[1,0.75,0]];outlineConnect=0;fontColor=#232F3E;fillColor=#ED7100;strokeColor=#ffffff;dashed=0;verticalLabelPosition=bottom;verticalAlign=top;align=center;html=1;fontSize=12;fontStyle=0;aspect=fixed;shape=mxgraph.aws4.resourceIcon;resIcon=mxgraph.aws4.ec2;" parent="1" vertex="1">
          <mxGeometry x="560" y="360" width="40" height="40" as="geometry" />
        </mxCell>
        <mxCell id="08-Z56SP4-U3Yru6_U8v-13" value="EC2" style="sketch=0;points=[[0,0,0],[0.25,0,0],[0.5,0,0],[0.75,0,0],[1,0,0],[0,1,0],[0.25,1,0],[0.5,1,0],[0.75,1,0],[1,1,0],[0,0.25,0],[0,0.5,0],[0,0.75,0],[1,0.25,0],[1,0.5,0],[1,0.75,0]];outlineConnect=0;fontColor=#232F3E;fillColor=#ED7100;strokeColor=#ffffff;dashed=0;verticalLabelPosition=bottom;verticalAlign=top;align=center;html=1;fontSize=12;fontStyle=0;aspect=fixed;shape=mxgraph.aws4.resourceIcon;resIcon=mxgraph.aws4.ec2;" parent="1" vertex="1">
          <mxGeometry x="620" y="360" width="40" height="40" as="geometry" />
        </mxCell>
        <mxCell id="08-Z56SP4-U3Yru6_U8v-14" value="EC2" style="sketch=0;points=[[0,0,0],[0.25,0,0],[0.5,0,0],[0.75,0,0],[1,0,0],[0,1,0],[0.25,1,0],[0.5,1,0],[0.75,1,0],[1,1,0],[0,0.25,0],[0,0.5,0],[0,0.75,0],[1,0.25,0],[1,0.5,0],[1,0.75,0]];outlineConnect=0;fontColor=#232F3E;fillColor=#ED7100;strokeColor=#ffffff;dashed=0;verticalLabelPosition=bottom;verticalAlign=top;align=center;html=1;fontSize=12;fontStyle=0;aspect=fixed;shape=mxgraph.aws4.resourceIcon;resIcon=mxgraph.aws4.ec2;" parent="1" vertex="1">
          <mxGeometry x="680" y="360" width="40" height="40" as="geometry" />
        </mxCell>
        <mxCell id="08-Z56SP4-U3Yru6_U8v-16" value="" style="sketch=0;outlineConnect=0;fontColor=#232F3E;gradientColor=none;fillColor=#232F3D;strokeColor=none;dashed=0;verticalLabelPosition=bottom;verticalAlign=top;align=center;html=1;fontSize=12;fontStyle=0;aspect=fixed;pointerEvents=1;shape=mxgraph.aws4.traditional_server;" parent="1" vertex="1">
          <mxGeometry x="560" y="500" width="45" height="78" as="geometry" />
        </mxCell>
        <mxCell id="08-Z56SP4-U3Yru6_U8v-17" value="" style="sketch=0;outlineConnect=0;fontColor=#232F3E;gradientColor=none;fillColor=#232F3D;strokeColor=none;dashed=0;verticalLabelPosition=bottom;verticalAlign=top;align=center;html=1;fontSize=12;fontStyle=0;aspect=fixed;pointerEvents=1;shape=mxgraph.aws4.traditional_server;" parent="1" vertex="1">
          <mxGeometry x="620" y="500" width="45" height="78" as="geometry" />
        </mxCell>
        <mxCell id="08-Z56SP4-U3Yru6_U8v-18" value="" style="sketch=0;outlineConnect=0;fontColor=#232F3E;gradientColor=none;fillColor=#232F3D;strokeColor=none;dashed=0;verticalLabelPosition=bottom;verticalAlign=top;align=center;html=1;fontSize=12;fontStyle=0;aspect=fixed;pointerEvents=1;shape=mxgraph.aws4.traditional_server;" parent="1" vertex="1">
          <mxGeometry x="680" y="500" width="45" height="78" as="geometry" />
        </mxCell>
        <mxCell id="08-Z56SP4-U3Yru6_U8v-19" value="" style="sketch=0;outlineConnect=0;fontColor=#232F3E;gradientColor=none;fillColor=#8C4FFF;strokeColor=none;dashed=0;verticalLabelPosition=bottom;verticalAlign=top;align=center;html=1;fontSize=12;fontStyle=0;aspect=fixed;pointerEvents=1;shape=mxgraph.aws4.application_load_balancer;" parent="1" vertex="1">
          <mxGeometry x="280" y="410" width="78" height="78" as="geometry" />
        </mxCell>
        <mxCell id="08-Z56SP4-U3Yru6_U8v-20" value="Application Load Balancer" style="fillColor=none;strokeColor=#DD3522;verticalAlign=top;fontStyle=0;fontColor=#DD3522;whiteSpace=wrap;html=1;" parent="1" vertex="1">
          <mxGeometry x="260" y="310" width="120" height="280" as="geometry" />
        </mxCell>
        <mxCell id="08-Z56SP4-U3Yru6_U8v-22" value="www ...?platform=mobile" style="edgeStyle=orthogonalEdgeStyle;rounded=0;orthogonalLoop=1;jettySize=auto;html=1;entryX=-0.025;entryY=0.146;entryDx=0;entryDy=0;entryPerimeter=0;startArrow=classic;startFill=1;" parent="1" source="08-Z56SP4-U3Yru6_U8v-21" target="08-Z56SP4-U3Yru6_U8v-20" edge="1">
          <mxGeometry relative="1" as="geometry" />
        </mxCell>
        <mxCell id="08-Z56SP4-U3Yru6_U8v-21" value="" style="outlineConnect=0;dashed=0;verticalLabelPosition=bottom;verticalAlign=top;align=center;html=1;shape=mxgraph.aws3.mobile_client;fillColor=#D2D3D3;gradientColor=none;" parent="1" vertex="1">
          <mxGeometry x="54.75" y="320" width="40.5" height="63" as="geometry" />
        </mxCell>
        <mxCell id="08-Z56SP4-U3Yru6_U8v-23" value="www ...?platform=mobile" style="edgeStyle=orthogonalEdgeStyle;rounded=0;orthogonalLoop=1;jettySize=auto;html=1;startArrow=classic;startFill=1;" parent="1" edge="1">
          <mxGeometry relative="1" as="geometry">
            <mxPoint x="384" y="351.75" as="sourcePoint" />
            <mxPoint x="530" y="352" as="targetPoint" />
          </mxGeometry>
        </mxCell>
        <mxCell id="08-Z56SP4-U3Yru6_U8v-24" value="desktop" style="sketch=0;outlineConnect=0;gradientColor=none;fontColor=#545B64;strokeColor=none;fillColor=#879196;dashed=0;verticalLabelPosition=bottom;verticalAlign=top;align=center;html=1;fontSize=12;fontStyle=0;aspect=fixed;shape=mxgraph.aws4.illustration_desktop;pointerEvents=1" parent="1" vertex="1">
          <mxGeometry x="30.000000000000004" y="500" width="52.75" height="48" as="geometry" />
        </mxCell>
        <mxCell id="08-Z56SP4-U3Yru6_U8v-25" value="www ...?platform=desktop" style="edgeStyle=orthogonalEdgeStyle;rounded=0;orthogonalLoop=1;jettySize=auto;html=1;entryX=-0.025;entryY=0.146;entryDx=0;entryDy=0;entryPerimeter=0;startArrow=classic;startFill=1;" parent="1" edge="1">
          <mxGeometry relative="1" as="geometry">
            <mxPoint x="92" y="521" as="sourcePoint" />
            <mxPoint x="254" y="520" as="targetPoint" />
          </mxGeometry>
        </mxCell>
        <mxCell id="08-Z56SP4-U3Yru6_U8v-26" value="www ...?platform=desktop" style="edgeStyle=orthogonalEdgeStyle;rounded=0;orthogonalLoop=1;jettySize=auto;html=1;entryX=-0.025;entryY=0.146;entryDx=0;entryDy=0;entryPerimeter=0;startArrow=classic;startFill=1;" parent="1" edge="1">
          <mxGeometry relative="1" as="geometry">
            <mxPoint x="380" y="525.25" as="sourcePoint" />
            <mxPoint x="542" y="524.25" as="targetPoint" />
          </mxGeometry>
        </mxCell>
        <mxCell id="08-Z56SP4-U3Yru6_U8v-31" style="edgeStyle=orthogonalEdgeStyle;rounded=0;orthogonalLoop=1;jettySize=auto;html=1;entryX=0;entryY=0.5;entryDx=0;entryDy=0;entryPerimeter=0;dashed=1;" parent="1" source="08-Z56SP4-U3Yru6_U8v-27" target="08-Z56SP4-U3Yru6_U8v-30" edge="1">
          <mxGeometry relative="1" as="geometry" />
        </mxCell>
        <mxCell id="08-Z56SP4-U3Yru6_U8v-32" style="edgeStyle=orthogonalEdgeStyle;rounded=0;orthogonalLoop=1;jettySize=auto;html=1;entryX=0.231;entryY=-0.045;entryDx=0;entryDy=0;entryPerimeter=0;" parent="1" source="08-Z56SP4-U3Yru6_U8v-27" target="08-Z56SP4-U3Yru6_U8v-29" edge="1">
          <mxGeometry relative="1" as="geometry">
            <Array as="points">
              <mxPoint x="358" y="880" />
            </Array>
          </mxGeometry>
        </mxCell>
        <mxCell id="08-Z56SP4-U3Yru6_U8v-27" value="" style="sketch=0;outlineConnect=0;fontColor=#232F3E;gradientColor=none;fillColor=#232F3D;strokeColor=none;dashed=0;verticalLabelPosition=bottom;verticalAlign=top;align=center;html=1;fontSize=12;fontStyle=0;aspect=fixed;pointerEvents=1;shape=mxgraph.aws4.users;" parent="1" vertex="1">
          <mxGeometry x="70" y="830" width="78" height="78" as="geometry" />
        </mxCell>
        <mxCell id="08-Z56SP4-U3Yru6_U8v-28" value="Route table" style="sketch=0;outlineConnect=0;fontColor=#232F3E;gradientColor=none;strokeColor=#232F3E;fillColor=#ffffff;dashed=0;verticalLabelPosition=bottom;verticalAlign=top;align=center;html=1;fontSize=12;fontStyle=0;aspect=fixed;shape=mxgraph.aws4.resourceIcon;resIcon=mxgraph.aws4.route_table;" parent="1" vertex="1">
          <mxGeometry x="220" y="890" width="60" height="60" as="geometry" />
        </mxCell>
        <mxCell id="08-Z56SP4-U3Yru6_U8v-40" style="edgeStyle=orthogonalEdgeStyle;rounded=0;orthogonalLoop=1;jettySize=auto;html=1;entryX=0;entryY=0.647;entryDx=0;entryDy=0;entryPerimeter=0;" parent="1" source="08-Z56SP4-U3Yru6_U8v-29" target="08-Z56SP4-U3Yru6_U8v-30" edge="1">
          <mxGeometry relative="1" as="geometry">
            <Array as="points">
              <mxPoint x="400" y="881" />
            </Array>
          </mxGeometry>
        </mxCell>
        <mxCell id="08-Z56SP4-U3Yru6_U8v-41" style="edgeStyle=orthogonalEdgeStyle;rounded=0;orthogonalLoop=1;jettySize=auto;html=1;entryX=0.414;entryY=0.003;entryDx=0;entryDy=0;entryPerimeter=0;" parent="1" source="08-Z56SP4-U3Yru6_U8v-29" target="08-Z56SP4-U3Yru6_U8v-33" edge="1">
          <mxGeometry relative="1" as="geometry">
            <Array as="points">
              <mxPoint x="357" y="1040" />
              <mxPoint x="357" y="1040" />
            </Array>
          </mxGeometry>
        </mxCell>
        <mxCell id="08-Z56SP4-U3Yru6_U8v-29" value="" style="sketch=0;outlineConnect=0;fontColor=#232F3E;gradientColor=none;fillColor=#8C4FFF;strokeColor=none;dashed=0;verticalLabelPosition=bottom;verticalAlign=top;align=center;html=1;fontSize=12;fontStyle=0;aspect=fixed;pointerEvents=1;shape=mxgraph.aws4.gateway_load_balancer;" parent="1" vertex="1">
          <mxGeometry x="340" y="950" width="78" height="78" as="geometry" />
        </mxCell>
        <mxCell id="08-Z56SP4-U3Yru6_U8v-30" value="Applications" style="sketch=0;points=[[0,0,0],[0.25,0,0],[0.5,0,0],[0.75,0,0],[1,0,0],[0,1,0],[0.25,1,0],[0.5,1,0],[0.75,1,0],[1,1,0],[0,0.25,0],[0,0.5,0],[0,0.75,0],[1,0.25,0],[1,0.5,0],[1,0.75,0]];outlineConnect=0;fontColor=#232F3E;fillColor=#ED7100;strokeColor=#ffffff;dashed=0;verticalLabelPosition=bottom;verticalAlign=top;align=center;html=1;fontSize=12;fontStyle=0;aspect=fixed;shape=mxgraph.aws4.resourceIcon;resIcon=mxgraph.aws4.ec2;" parent="1" vertex="1">
          <mxGeometry x="605" y="830" width="78" height="78" as="geometry" />
        </mxCell>
        <mxCell id="08-Z56SP4-U3Yru6_U8v-38" style="edgeStyle=orthogonalEdgeStyle;rounded=0;orthogonalLoop=1;jettySize=auto;html=1;entryX=0.769;entryY=1.019;entryDx=0;entryDy=0;entryPerimeter=0;exitX=0.619;exitY=-0.034;exitDx=0;exitDy=0;exitPerimeter=0;" parent="1" source="08-Z56SP4-U3Yru6_U8v-33" target="08-Z56SP4-U3Yru6_U8v-29" edge="1">
          <mxGeometry relative="1" as="geometry">
            <mxPoint x="400" y="1080" as="sourcePoint" />
          </mxGeometry>
        </mxCell>
        <mxCell id="08-Z56SP4-U3Yru6_U8v-33" value="Target Group" style="points=[[0,0],[0.25,0],[0.5,0],[0.75,0],[1,0],[1,0.25],[1,0.5],[1,0.75],[1,1],[0.75,1],[0.5,1],[0.25,1],[0,1],[0,0.75],[0,0.5],[0,0.25]];outlineConnect=0;gradientColor=none;html=1;whiteSpace=wrap;fontSize=12;fontStyle=0;container=1;pointerEvents=0;collapsible=0;recursiveResize=0;shape=mxgraph.aws4.groupCenter;grIcon=mxgraph.aws4.group_auto_scaling_group;grStroke=1;strokeColor=#D86613;fillColor=none;verticalAlign=top;align=center;fontColor=#D86613;dashed=1;spacingTop=25;" parent="1" vertex="1">
          <mxGeometry x="270" y="1090" width="210" height="160" as="geometry" />
        </mxCell>
        <mxCell id="08-Z56SP4-U3Yru6_U8v-34" value="" style="sketch=0;outlineConnect=0;fontColor=#232F3E;gradientColor=none;fillColor=#ED7100;strokeColor=none;dashed=0;verticalLabelPosition=bottom;verticalAlign=top;align=center;html=1;fontSize=12;fontStyle=0;aspect=fixed;pointerEvents=1;shape=mxgraph.aws4.instance2;" parent="08-Z56SP4-U3Yru6_U8v-33" vertex="1">
          <mxGeometry x="20" y="70" width="48" height="48" as="geometry" />
        </mxCell>
        <mxCell id="08-Z56SP4-U3Yru6_U8v-35" value="3rd party security&lt;br&gt;virtual appliances" style="sketch=0;outlineConnect=0;fontColor=#232F3E;gradientColor=none;fillColor=#ED7100;strokeColor=none;dashed=0;verticalLabelPosition=bottom;verticalAlign=top;align=center;html=1;fontSize=12;fontStyle=0;aspect=fixed;pointerEvents=1;shape=mxgraph.aws4.instance2;" parent="08-Z56SP4-U3Yru6_U8v-33" vertex="1">
          <mxGeometry x="81" y="70" width="48" height="48" as="geometry" />
        </mxCell>
        <mxCell id="08-Z56SP4-U3Yru6_U8v-36" value="" style="sketch=0;outlineConnect=0;fontColor=#232F3E;gradientColor=none;fillColor=#ED7100;strokeColor=none;dashed=0;verticalLabelPosition=bottom;verticalAlign=top;align=center;html=1;fontSize=12;fontStyle=0;aspect=fixed;pointerEvents=1;shape=mxgraph.aws4.instance2;" parent="08-Z56SP4-U3Yru6_U8v-33" vertex="1">
          <mxGeometry x="141" y="70" width="48" height="48" as="geometry" />
        </mxCell>
        <mxCell id="WtT8hOTgRpXNHZC3K_eX-1" value="AZ a" style="fillColor=none;strokeColor=#147EBA;dashed=1;verticalAlign=bottom;fontStyle=0;fontColor=#147EBA;whiteSpace=wrap;html=1;" vertex="1" parent="1">
          <mxGeometry x="140" y="1440" width="110" height="230" as="geometry" />
        </mxCell>
        <mxCell id="WtT8hOTgRpXNHZC3K_eX-24" value="10" style="edgeStyle=orthogonalEdgeStyle;rounded=0;orthogonalLoop=1;jettySize=auto;html=1;" edge="1" parent="1" source="WtT8hOTgRpXNHZC3K_eX-2" target="WtT8hOTgRpXNHZC3K_eX-3">
          <mxGeometry x="0.6812" y="-13" relative="1" as="geometry">
            <Array as="points">
              <mxPoint x="195" y="1590" />
              <mxPoint x="169" y="1590" />
            </Array>
            <mxPoint x="4" y="-10" as="offset" />
          </mxGeometry>
        </mxCell>
        <mxCell id="WtT8hOTgRpXNHZC3K_eX-25" value="10" style="edgeStyle=orthogonalEdgeStyle;rounded=0;orthogonalLoop=1;jettySize=auto;html=1;" edge="1" parent="1" source="WtT8hOTgRpXNHZC3K_eX-2" target="WtT8hOTgRpXNHZC3K_eX-4">
          <mxGeometry x="0.6765" y="15" relative="1" as="geometry">
            <Array as="points">
              <mxPoint x="195" y="1590" />
              <mxPoint x="219" y="1590" />
            </Array>
            <mxPoint x="-4" y="-10" as="offset" />
          </mxGeometry>
        </mxCell>
        <mxCell id="WtT8hOTgRpXNHZC3K_eX-26" style="edgeStyle=orthogonalEdgeStyle;rounded=0;orthogonalLoop=1;jettySize=auto;html=1;" edge="1" parent="1" source="WtT8hOTgRpXNHZC3K_eX-2" target="WtT8hOTgRpXNHZC3K_eX-12">
          <mxGeometry relative="1" as="geometry">
            <Array as="points">
              <mxPoint x="195" y="1520" />
              <mxPoint x="309" y="1520" />
            </Array>
          </mxGeometry>
        </mxCell>
        <mxCell id="WtT8hOTgRpXNHZC3K_eX-2" value="" style="sketch=0;points=[[0,0,0],[0.25,0,0],[0.5,0,0],[0.75,0,0],[1,0,0],[0,1,0],[0.25,1,0],[0.5,1,0],[0.75,1,0],[1,1,0],[0,0.25,0],[0,0.5,0],[0,0.75,0],[1,0.25,0],[1,0.5,0],[1,0.75,0]];outlineConnect=0;fontColor=#232F3E;fillColor=#8C4FFF;strokeColor=#ffffff;dashed=0;verticalLabelPosition=bottom;verticalAlign=top;align=center;html=1;fontSize=12;fontStyle=0;aspect=fixed;shape=mxgraph.aws4.resourceIcon;resIcon=mxgraph.aws4.elastic_load_balancing;" vertex="1" parent="1">
          <mxGeometry x="171" y="1452" width="48" height="48" as="geometry" />
        </mxCell>
        <mxCell id="WtT8hOTgRpXNHZC3K_eX-3" value="" style="sketch=0;outlineConnect=0;fontColor=#232F3E;gradientColor=none;fillColor=#ED7100;strokeColor=none;dashed=0;verticalLabelPosition=bottom;verticalAlign=top;align=center;html=1;fontSize=12;fontStyle=0;aspect=fixed;pointerEvents=1;shape=mxgraph.aws4.instance2;" vertex="1" parent="1">
          <mxGeometry x="148" y="1612" width="38" height="38" as="geometry" />
        </mxCell>
        <mxCell id="WtT8hOTgRpXNHZC3K_eX-4" value="" style="sketch=0;outlineConnect=0;fontColor=#232F3E;gradientColor=none;fillColor=#ED7100;strokeColor=none;dashed=0;verticalLabelPosition=bottom;verticalAlign=top;align=center;html=1;fontSize=12;fontStyle=0;aspect=fixed;pointerEvents=1;shape=mxgraph.aws4.instance2;" vertex="1" parent="1">
          <mxGeometry x="198" y="1612" width="38" height="38" as="geometry" />
        </mxCell>
        <mxCell id="WtT8hOTgRpXNHZC3K_eX-6" value="AZ b" style="fillColor=none;strokeColor=#147EBA;dashed=1;verticalAlign=bottom;fontStyle=0;fontColor=#147EBA;whiteSpace=wrap;html=1;" vertex="1" parent="1">
          <mxGeometry x="280" y="1440" width="210" height="230" as="geometry" />
        </mxCell>
        <mxCell id="WtT8hOTgRpXNHZC3K_eX-16" value="10" style="edgeStyle=orthogonalEdgeStyle;rounded=0;orthogonalLoop=1;jettySize=auto;html=1;" edge="1" parent="1" source="WtT8hOTgRpXNHZC3K_eX-7" target="WtT8hOTgRpXNHZC3K_eX-12">
          <mxGeometry x="0.8276" y="-19" relative="1" as="geometry">
            <Array as="points">
              <mxPoint x="385" y="1520" />
              <mxPoint x="309" y="1520" />
            </Array>
            <mxPoint as="offset" />
          </mxGeometry>
        </mxCell>
        <mxCell id="WtT8hOTgRpXNHZC3K_eX-17" value="10" style="edgeStyle=orthogonalEdgeStyle;rounded=0;orthogonalLoop=1;jettySize=auto;html=1;" edge="1" parent="1" source="WtT8hOTgRpXNHZC3K_eX-7" target="WtT8hOTgRpXNHZC3K_eX-13">
          <mxGeometry x="0.6875" y="-21" relative="1" as="geometry">
            <Array as="points">
              <mxPoint x="385" y="1520" />
              <mxPoint x="361" y="1520" />
            </Array>
            <mxPoint as="offset" />
          </mxGeometry>
        </mxCell>
        <mxCell id="WtT8hOTgRpXNHZC3K_eX-18" value="10" style="edgeStyle=orthogonalEdgeStyle;rounded=0;orthogonalLoop=1;jettySize=auto;html=1;" edge="1" parent="1" source="WtT8hOTgRpXNHZC3K_eX-7" target="WtT8hOTgRpXNHZC3K_eX-14">
          <mxGeometry x="0.6875" y="21" relative="1" as="geometry">
            <Array as="points">
              <mxPoint x="385" y="1520" />
              <mxPoint x="409" y="1520" />
            </Array>
            <mxPoint as="offset" />
          </mxGeometry>
        </mxCell>
        <mxCell id="WtT8hOTgRpXNHZC3K_eX-19" value="10" style="edgeStyle=orthogonalEdgeStyle;rounded=0;orthogonalLoop=1;jettySize=auto;html=1;" edge="1" parent="1" source="WtT8hOTgRpXNHZC3K_eX-7" target="WtT8hOTgRpXNHZC3K_eX-15">
          <mxGeometry x="0.8276" y="19" relative="1" as="geometry">
            <Array as="points">
              <mxPoint x="385" y="1520" />
              <mxPoint x="461" y="1520" />
            </Array>
            <mxPoint as="offset" />
          </mxGeometry>
        </mxCell>
        <mxCell id="WtT8hOTgRpXNHZC3K_eX-20" value="10" style="edgeStyle=orthogonalEdgeStyle;rounded=0;orthogonalLoop=1;jettySize=auto;html=1;" edge="1" parent="1" source="WtT8hOTgRpXNHZC3K_eX-7" target="WtT8hOTgRpXNHZC3K_eX-8">
          <mxGeometry x="0.8925" y="-19" relative="1" as="geometry">
            <Array as="points">
              <mxPoint x="385" y="1590" />
              <mxPoint x="309" y="1590" />
            </Array>
            <mxPoint as="offset" />
          </mxGeometry>
        </mxCell>
        <mxCell id="WtT8hOTgRpXNHZC3K_eX-21" value="10" style="edgeStyle=orthogonalEdgeStyle;rounded=0;orthogonalLoop=1;jettySize=auto;html=1;" edge="1" parent="1" source="WtT8hOTgRpXNHZC3K_eX-7" target="WtT8hOTgRpXNHZC3K_eX-9">
          <mxGeometry x="0.8507" y="-21" relative="1" as="geometry">
            <Array as="points">
              <mxPoint x="385" y="1590" />
              <mxPoint x="361" y="1590" />
            </Array>
            <mxPoint as="offset" />
          </mxGeometry>
        </mxCell>
        <mxCell id="WtT8hOTgRpXNHZC3K_eX-22" value="10" style="edgeStyle=orthogonalEdgeStyle;rounded=0;orthogonalLoop=1;jettySize=auto;html=1;" edge="1" parent="1" source="WtT8hOTgRpXNHZC3K_eX-7" target="WtT8hOTgRpXNHZC3K_eX-10">
          <mxGeometry x="0.8507" y="21" relative="1" as="geometry">
            <Array as="points">
              <mxPoint x="385" y="1590" />
              <mxPoint x="409" y="1590" />
            </Array>
            <mxPoint as="offset" />
          </mxGeometry>
        </mxCell>
        <mxCell id="WtT8hOTgRpXNHZC3K_eX-23" value="10" style="edgeStyle=orthogonalEdgeStyle;rounded=0;orthogonalLoop=1;jettySize=auto;html=1;" edge="1" parent="1" source="WtT8hOTgRpXNHZC3K_eX-7" target="WtT8hOTgRpXNHZC3K_eX-11">
          <mxGeometry x="0.8925" y="19" relative="1" as="geometry">
            <Array as="points">
              <mxPoint x="385" y="1590" />
              <mxPoint x="461" y="1590" />
            </Array>
            <mxPoint as="offset" />
          </mxGeometry>
        </mxCell>
        <mxCell id="WtT8hOTgRpXNHZC3K_eX-7" value="" style="sketch=0;points=[[0,0,0],[0.25,0,0],[0.5,0,0],[0.75,0,0],[1,0,0],[0,1,0],[0.25,1,0],[0.5,1,0],[0.75,1,0],[1,1,0],[0,0.25,0],[0,0.5,0],[0,0.75,0],[1,0.25,0],[1,0.5,0],[1,0.75,0]];outlineConnect=0;fontColor=#232F3E;fillColor=#8C4FFF;strokeColor=#ffffff;dashed=0;verticalLabelPosition=bottom;verticalAlign=top;align=center;html=1;fontSize=12;fontStyle=0;aspect=fixed;shape=mxgraph.aws4.resourceIcon;resIcon=mxgraph.aws4.elastic_load_balancing;" vertex="1" parent="1">
          <mxGeometry x="361" y="1452" width="48" height="48" as="geometry" />
        </mxCell>
        <mxCell id="WtT8hOTgRpXNHZC3K_eX-8" value="" style="sketch=0;outlineConnect=0;fontColor=#232F3E;gradientColor=none;fillColor=#ED7100;strokeColor=none;dashed=0;verticalLabelPosition=bottom;verticalAlign=top;align=center;html=1;fontSize=12;fontStyle=0;aspect=fixed;pointerEvents=1;shape=mxgraph.aws4.instance2;" vertex="1" parent="1">
          <mxGeometry x="290" y="1610" width="38" height="38" as="geometry" />
        </mxCell>
        <mxCell id="WtT8hOTgRpXNHZC3K_eX-9" value="" style="sketch=0;outlineConnect=0;fontColor=#232F3E;gradientColor=none;fillColor=#ED7100;strokeColor=none;dashed=0;verticalLabelPosition=bottom;verticalAlign=top;align=center;html=1;fontSize=12;fontStyle=0;aspect=fixed;pointerEvents=1;shape=mxgraph.aws4.instance2;" vertex="1" parent="1">
          <mxGeometry x="342" y="1610" width="38" height="38" as="geometry" />
        </mxCell>
        <mxCell id="WtT8hOTgRpXNHZC3K_eX-10" value="" style="sketch=0;outlineConnect=0;fontColor=#232F3E;gradientColor=none;fillColor=#ED7100;strokeColor=none;dashed=0;verticalLabelPosition=bottom;verticalAlign=top;align=center;html=1;fontSize=12;fontStyle=0;aspect=fixed;pointerEvents=1;shape=mxgraph.aws4.instance2;" vertex="1" parent="1">
          <mxGeometry x="390" y="1610" width="38" height="38" as="geometry" />
        </mxCell>
        <mxCell id="WtT8hOTgRpXNHZC3K_eX-11" value="" style="sketch=0;outlineConnect=0;fontColor=#232F3E;gradientColor=none;fillColor=#ED7100;strokeColor=none;dashed=0;verticalLabelPosition=bottom;verticalAlign=top;align=center;html=1;fontSize=12;fontStyle=0;aspect=fixed;pointerEvents=1;shape=mxgraph.aws4.instance2;" vertex="1" parent="1">
          <mxGeometry x="442" y="1610" width="38" height="38" as="geometry" />
        </mxCell>
        <mxCell id="WtT8hOTgRpXNHZC3K_eX-12" value="" style="sketch=0;outlineConnect=0;fontColor=#232F3E;gradientColor=none;fillColor=#ED7100;strokeColor=none;dashed=0;verticalLabelPosition=bottom;verticalAlign=top;align=center;html=1;fontSize=12;fontStyle=0;aspect=fixed;pointerEvents=1;shape=mxgraph.aws4.instance2;" vertex="1" parent="1">
          <mxGeometry x="290" y="1540" width="38" height="38" as="geometry" />
        </mxCell>
        <mxCell id="WtT8hOTgRpXNHZC3K_eX-13" value="" style="sketch=0;outlineConnect=0;fontColor=#232F3E;gradientColor=none;fillColor=#ED7100;strokeColor=none;dashed=0;verticalLabelPosition=bottom;verticalAlign=top;align=center;html=1;fontSize=12;fontStyle=0;aspect=fixed;pointerEvents=1;shape=mxgraph.aws4.instance2;" vertex="1" parent="1">
          <mxGeometry x="342" y="1540" width="38" height="38" as="geometry" />
        </mxCell>
        <mxCell id="WtT8hOTgRpXNHZC3K_eX-14" value="" style="sketch=0;outlineConnect=0;fontColor=#232F3E;gradientColor=none;fillColor=#ED7100;strokeColor=none;dashed=0;verticalLabelPosition=bottom;verticalAlign=top;align=center;html=1;fontSize=12;fontStyle=0;aspect=fixed;pointerEvents=1;shape=mxgraph.aws4.instance2;" vertex="1" parent="1">
          <mxGeometry x="390" y="1540" width="38" height="38" as="geometry" />
        </mxCell>
        <mxCell id="WtT8hOTgRpXNHZC3K_eX-15" value="" style="sketch=0;outlineConnect=0;fontColor=#232F3E;gradientColor=none;fillColor=#ED7100;strokeColor=none;dashed=0;verticalLabelPosition=bottom;verticalAlign=top;align=center;html=1;fontSize=12;fontStyle=0;aspect=fixed;pointerEvents=1;shape=mxgraph.aws4.instance2;" vertex="1" parent="1">
          <mxGeometry x="442" y="1540" width="38" height="38" as="geometry" />
        </mxCell>
        <mxCell id="WtT8hOTgRpXNHZC3K_eX-28" value="50" style="edgeStyle=orthogonalEdgeStyle;rounded=0;orthogonalLoop=1;jettySize=auto;html=1;entryX=0.5;entryY=0;entryDx=0;entryDy=0;entryPerimeter=0;" edge="1" parent="1" source="WtT8hOTgRpXNHZC3K_eX-27" target="WtT8hOTgRpXNHZC3K_eX-2">
          <mxGeometry relative="1" as="geometry">
            <Array as="points">
              <mxPoint x="195" y="1360" />
            </Array>
          </mxGeometry>
        </mxCell>
        <mxCell id="WtT8hOTgRpXNHZC3K_eX-29" value="50" style="edgeStyle=orthogonalEdgeStyle;rounded=0;orthogonalLoop=1;jettySize=auto;html=1;entryX=0.5;entryY=0;entryDx=0;entryDy=0;entryPerimeter=0;" edge="1" parent="1" source="WtT8hOTgRpXNHZC3K_eX-27" target="WtT8hOTgRpXNHZC3K_eX-7">
          <mxGeometry relative="1" as="geometry">
            <Array as="points">
              <mxPoint x="385" y="1360" />
            </Array>
          </mxGeometry>
        </mxCell>
        <mxCell id="WtT8hOTgRpXNHZC3K_eX-27" value="" style="sketch=0;outlineConnect=0;fontColor=#232F3E;gradientColor=none;fillColor=#232F3D;strokeColor=none;dashed=0;verticalLabelPosition=bottom;verticalAlign=top;align=center;html=1;fontSize=12;fontStyle=0;aspect=fixed;pointerEvents=1;shape=mxgraph.aws4.client;" vertex="1" parent="1">
          <mxGeometry x="254" y="1330" width="78" height="76" as="geometry" />
        </mxCell>
        <mxCell id="WtT8hOTgRpXNHZC3K_eX-31" value="Without Cross-Zone Balancing" style="rounded=0;whiteSpace=wrap;html=1;verticalAlign=bottom;" vertex="1" parent="1">
          <mxGeometry x="530" y="1320" width="390" height="380" as="geometry" />
        </mxCell>
        <mxCell id="WtT8hOTgRpXNHZC3K_eX-32" value="AZ a" style="fillColor=none;strokeColor=#147EBA;dashed=1;verticalAlign=bottom;fontStyle=0;fontColor=#147EBA;whiteSpace=wrap;html=1;" vertex="1" parent="1">
          <mxGeometry x="550" y="1440" width="110" height="230" as="geometry" />
        </mxCell>
        <mxCell id="WtT8hOTgRpXNHZC3K_eX-33" value="25" style="edgeStyle=orthogonalEdgeStyle;rounded=0;orthogonalLoop=1;jettySize=auto;html=1;" edge="1" parent="1" source="WtT8hOTgRpXNHZC3K_eX-36" target="WtT8hOTgRpXNHZC3K_eX-37">
          <mxGeometry x="0.6812" y="-13" relative="1" as="geometry">
            <Array as="points">
              <mxPoint x="605" y="1590" />
              <mxPoint x="579" y="1590" />
            </Array>
            <mxPoint x="4" y="-10" as="offset" />
          </mxGeometry>
        </mxCell>
        <mxCell id="WtT8hOTgRpXNHZC3K_eX-34" value="25" style="edgeStyle=orthogonalEdgeStyle;rounded=0;orthogonalLoop=1;jettySize=auto;html=1;" edge="1" parent="1" source="WtT8hOTgRpXNHZC3K_eX-36" target="WtT8hOTgRpXNHZC3K_eX-38">
          <mxGeometry x="0.6765" y="15" relative="1" as="geometry">
            <Array as="points">
              <mxPoint x="605" y="1590" />
              <mxPoint x="629" y="1590" />
            </Array>
            <mxPoint x="-4" y="-10" as="offset" />
          </mxGeometry>
        </mxCell>
        <mxCell id="WtT8hOTgRpXNHZC3K_eX-36" value="" style="sketch=0;points=[[0,0,0],[0.25,0,0],[0.5,0,0],[0.75,0,0],[1,0,0],[0,1,0],[0.25,1,0],[0.5,1,0],[0.75,1,0],[1,1,0],[0,0.25,0],[0,0.5,0],[0,0.75,0],[1,0.25,0],[1,0.5,0],[1,0.75,0]];outlineConnect=0;fontColor=#232F3E;fillColor=#8C4FFF;strokeColor=#ffffff;dashed=0;verticalLabelPosition=bottom;verticalAlign=top;align=center;html=1;fontSize=12;fontStyle=0;aspect=fixed;shape=mxgraph.aws4.resourceIcon;resIcon=mxgraph.aws4.elastic_load_balancing;" vertex="1" parent="1">
          <mxGeometry x="581" y="1452" width="48" height="48" as="geometry" />
        </mxCell>
        <mxCell id="WtT8hOTgRpXNHZC3K_eX-37" value="" style="sketch=0;outlineConnect=0;fontColor=#232F3E;gradientColor=none;fillColor=#ED7100;strokeColor=none;dashed=0;verticalLabelPosition=bottom;verticalAlign=top;align=center;html=1;fontSize=12;fontStyle=0;aspect=fixed;pointerEvents=1;shape=mxgraph.aws4.instance2;" vertex="1" parent="1">
          <mxGeometry x="558" y="1612" width="38" height="38" as="geometry" />
        </mxCell>
        <mxCell id="WtT8hOTgRpXNHZC3K_eX-38" value="" style="sketch=0;outlineConnect=0;fontColor=#232F3E;gradientColor=none;fillColor=#ED7100;strokeColor=none;dashed=0;verticalLabelPosition=bottom;verticalAlign=top;align=center;html=1;fontSize=12;fontStyle=0;aspect=fixed;pointerEvents=1;shape=mxgraph.aws4.instance2;" vertex="1" parent="1">
          <mxGeometry x="608" y="1612" width="38" height="38" as="geometry" />
        </mxCell>
        <mxCell id="WtT8hOTgRpXNHZC3K_eX-39" value="AZ b" style="fillColor=none;strokeColor=#147EBA;dashed=1;verticalAlign=bottom;fontStyle=0;fontColor=#147EBA;whiteSpace=wrap;html=1;" vertex="1" parent="1">
          <mxGeometry x="690" y="1440" width="210" height="230" as="geometry" />
        </mxCell>
        <mxCell id="WtT8hOTgRpXNHZC3K_eX-40" value="6.25" style="edgeStyle=orthogonalEdgeStyle;rounded=0;orthogonalLoop=1;jettySize=auto;html=1;" edge="1" parent="1" source="WtT8hOTgRpXNHZC3K_eX-48" target="WtT8hOTgRpXNHZC3K_eX-53">
          <mxGeometry x="0.8276" y="-19" relative="1" as="geometry">
            <Array as="points">
              <mxPoint x="795" y="1520" />
              <mxPoint x="719" y="1520" />
            </Array>
            <mxPoint as="offset" />
          </mxGeometry>
        </mxCell>
        <mxCell id="WtT8hOTgRpXNHZC3K_eX-41" value="6.25" style="edgeStyle=orthogonalEdgeStyle;rounded=0;orthogonalLoop=1;jettySize=auto;html=1;" edge="1" parent="1" source="WtT8hOTgRpXNHZC3K_eX-48" target="WtT8hOTgRpXNHZC3K_eX-54">
          <mxGeometry x="0.6875" y="-21" relative="1" as="geometry">
            <Array as="points">
              <mxPoint x="795" y="1520" />
              <mxPoint x="771" y="1520" />
            </Array>
            <mxPoint as="offset" />
          </mxGeometry>
        </mxCell>
        <mxCell id="WtT8hOTgRpXNHZC3K_eX-42" value="6.25" style="edgeStyle=orthogonalEdgeStyle;rounded=0;orthogonalLoop=1;jettySize=auto;html=1;" edge="1" parent="1" source="WtT8hOTgRpXNHZC3K_eX-48" target="WtT8hOTgRpXNHZC3K_eX-55">
          <mxGeometry x="0.6875" y="21" relative="1" as="geometry">
            <Array as="points">
              <mxPoint x="795" y="1520" />
              <mxPoint x="819" y="1520" />
            </Array>
            <mxPoint as="offset" />
          </mxGeometry>
        </mxCell>
        <mxCell id="WtT8hOTgRpXNHZC3K_eX-43" value="6.25" style="edgeStyle=orthogonalEdgeStyle;rounded=0;orthogonalLoop=1;jettySize=auto;html=1;" edge="1" parent="1" source="WtT8hOTgRpXNHZC3K_eX-48" target="WtT8hOTgRpXNHZC3K_eX-56">
          <mxGeometry x="0.8276" y="19" relative="1" as="geometry">
            <Array as="points">
              <mxPoint x="795" y="1520" />
              <mxPoint x="871" y="1520" />
            </Array>
            <mxPoint as="offset" />
          </mxGeometry>
        </mxCell>
        <mxCell id="WtT8hOTgRpXNHZC3K_eX-44" value="6.25" style="edgeStyle=orthogonalEdgeStyle;rounded=0;orthogonalLoop=1;jettySize=auto;html=1;" edge="1" parent="1" source="WtT8hOTgRpXNHZC3K_eX-48" target="WtT8hOTgRpXNHZC3K_eX-49">
          <mxGeometry x="0.8925" y="-19" relative="1" as="geometry">
            <Array as="points">
              <mxPoint x="795" y="1590" />
              <mxPoint x="719" y="1590" />
            </Array>
            <mxPoint as="offset" />
          </mxGeometry>
        </mxCell>
        <mxCell id="WtT8hOTgRpXNHZC3K_eX-45" value="6.25" style="edgeStyle=orthogonalEdgeStyle;rounded=0;orthogonalLoop=1;jettySize=auto;html=1;" edge="1" parent="1" source="WtT8hOTgRpXNHZC3K_eX-48" target="WtT8hOTgRpXNHZC3K_eX-50">
          <mxGeometry x="0.8507" y="-21" relative="1" as="geometry">
            <Array as="points">
              <mxPoint x="795" y="1590" />
              <mxPoint x="771" y="1590" />
            </Array>
            <mxPoint as="offset" />
          </mxGeometry>
        </mxCell>
        <mxCell id="WtT8hOTgRpXNHZC3K_eX-46" value="6.25" style="edgeStyle=orthogonalEdgeStyle;rounded=0;orthogonalLoop=1;jettySize=auto;html=1;" edge="1" parent="1" source="WtT8hOTgRpXNHZC3K_eX-48" target="WtT8hOTgRpXNHZC3K_eX-51">
          <mxGeometry x="0.8507" y="21" relative="1" as="geometry">
            <Array as="points">
              <mxPoint x="795" y="1590" />
              <mxPoint x="819" y="1590" />
            </Array>
            <mxPoint as="offset" />
          </mxGeometry>
        </mxCell>
        <mxCell id="WtT8hOTgRpXNHZC3K_eX-47" value="6.25" style="edgeStyle=orthogonalEdgeStyle;rounded=0;orthogonalLoop=1;jettySize=auto;html=1;" edge="1" parent="1" source="WtT8hOTgRpXNHZC3K_eX-48" target="WtT8hOTgRpXNHZC3K_eX-52">
          <mxGeometry x="0.8925" y="19" relative="1" as="geometry">
            <Array as="points">
              <mxPoint x="795" y="1590" />
              <mxPoint x="871" y="1590" />
            </Array>
            <mxPoint as="offset" />
          </mxGeometry>
        </mxCell>
        <mxCell id="WtT8hOTgRpXNHZC3K_eX-48" value="" style="sketch=0;points=[[0,0,0],[0.25,0,0],[0.5,0,0],[0.75,0,0],[1,0,0],[0,1,0],[0.25,1,0],[0.5,1,0],[0.75,1,0],[1,1,0],[0,0.25,0],[0,0.5,0],[0,0.75,0],[1,0.25,0],[1,0.5,0],[1,0.75,0]];outlineConnect=0;fontColor=#232F3E;fillColor=#8C4FFF;strokeColor=#ffffff;dashed=0;verticalLabelPosition=bottom;verticalAlign=top;align=center;html=1;fontSize=12;fontStyle=0;aspect=fixed;shape=mxgraph.aws4.resourceIcon;resIcon=mxgraph.aws4.elastic_load_balancing;" vertex="1" parent="1">
          <mxGeometry x="771" y="1452" width="48" height="48" as="geometry" />
        </mxCell>
        <mxCell id="WtT8hOTgRpXNHZC3K_eX-49" value="" style="sketch=0;outlineConnect=0;fontColor=#232F3E;gradientColor=none;fillColor=#ED7100;strokeColor=none;dashed=0;verticalLabelPosition=bottom;verticalAlign=top;align=center;html=1;fontSize=12;fontStyle=0;aspect=fixed;pointerEvents=1;shape=mxgraph.aws4.instance2;" vertex="1" parent="1">
          <mxGeometry x="700" y="1610" width="38" height="38" as="geometry" />
        </mxCell>
        <mxCell id="WtT8hOTgRpXNHZC3K_eX-50" value="" style="sketch=0;outlineConnect=0;fontColor=#232F3E;gradientColor=none;fillColor=#ED7100;strokeColor=none;dashed=0;verticalLabelPosition=bottom;verticalAlign=top;align=center;html=1;fontSize=12;fontStyle=0;aspect=fixed;pointerEvents=1;shape=mxgraph.aws4.instance2;" vertex="1" parent="1">
          <mxGeometry x="752" y="1610" width="38" height="38" as="geometry" />
        </mxCell>
        <mxCell id="WtT8hOTgRpXNHZC3K_eX-51" value="" style="sketch=0;outlineConnect=0;fontColor=#232F3E;gradientColor=none;fillColor=#ED7100;strokeColor=none;dashed=0;verticalLabelPosition=bottom;verticalAlign=top;align=center;html=1;fontSize=12;fontStyle=0;aspect=fixed;pointerEvents=1;shape=mxgraph.aws4.instance2;" vertex="1" parent="1">
          <mxGeometry x="800" y="1610" width="38" height="38" as="geometry" />
        </mxCell>
        <mxCell id="WtT8hOTgRpXNHZC3K_eX-52" value="" style="sketch=0;outlineConnect=0;fontColor=#232F3E;gradientColor=none;fillColor=#ED7100;strokeColor=none;dashed=0;verticalLabelPosition=bottom;verticalAlign=top;align=center;html=1;fontSize=12;fontStyle=0;aspect=fixed;pointerEvents=1;shape=mxgraph.aws4.instance2;" vertex="1" parent="1">
          <mxGeometry x="852" y="1610" width="38" height="38" as="geometry" />
        </mxCell>
        <mxCell id="WtT8hOTgRpXNHZC3K_eX-53" value="" style="sketch=0;outlineConnect=0;fontColor=#232F3E;gradientColor=none;fillColor=#ED7100;strokeColor=none;dashed=0;verticalLabelPosition=bottom;verticalAlign=top;align=center;html=1;fontSize=12;fontStyle=0;aspect=fixed;pointerEvents=1;shape=mxgraph.aws4.instance2;" vertex="1" parent="1">
          <mxGeometry x="700" y="1540" width="38" height="38" as="geometry" />
        </mxCell>
        <mxCell id="WtT8hOTgRpXNHZC3K_eX-54" value="" style="sketch=0;outlineConnect=0;fontColor=#232F3E;gradientColor=none;fillColor=#ED7100;strokeColor=none;dashed=0;verticalLabelPosition=bottom;verticalAlign=top;align=center;html=1;fontSize=12;fontStyle=0;aspect=fixed;pointerEvents=1;shape=mxgraph.aws4.instance2;" vertex="1" parent="1">
          <mxGeometry x="752" y="1540" width="38" height="38" as="geometry" />
        </mxCell>
        <mxCell id="WtT8hOTgRpXNHZC3K_eX-55" value="" style="sketch=0;outlineConnect=0;fontColor=#232F3E;gradientColor=none;fillColor=#ED7100;strokeColor=none;dashed=0;verticalLabelPosition=bottom;verticalAlign=top;align=center;html=1;fontSize=12;fontStyle=0;aspect=fixed;pointerEvents=1;shape=mxgraph.aws4.instance2;" vertex="1" parent="1">
          <mxGeometry x="800" y="1540" width="38" height="38" as="geometry" />
        </mxCell>
        <mxCell id="WtT8hOTgRpXNHZC3K_eX-56" value="" style="sketch=0;outlineConnect=0;fontColor=#232F3E;gradientColor=none;fillColor=#ED7100;strokeColor=none;dashed=0;verticalLabelPosition=bottom;verticalAlign=top;align=center;html=1;fontSize=12;fontStyle=0;aspect=fixed;pointerEvents=1;shape=mxgraph.aws4.instance2;" vertex="1" parent="1">
          <mxGeometry x="852" y="1540" width="38" height="38" as="geometry" />
        </mxCell>
        <mxCell id="WtT8hOTgRpXNHZC3K_eX-57" value="50" style="edgeStyle=orthogonalEdgeStyle;rounded=0;orthogonalLoop=1;jettySize=auto;html=1;entryX=0.5;entryY=0;entryDx=0;entryDy=0;entryPerimeter=0;" edge="1" parent="1" source="WtT8hOTgRpXNHZC3K_eX-59" target="WtT8hOTgRpXNHZC3K_eX-36">
          <mxGeometry relative="1" as="geometry">
            <Array as="points">
              <mxPoint x="605" y="1360" />
            </Array>
          </mxGeometry>
        </mxCell>
        <mxCell id="WtT8hOTgRpXNHZC3K_eX-58" value="50" style="edgeStyle=orthogonalEdgeStyle;rounded=0;orthogonalLoop=1;jettySize=auto;html=1;entryX=0.5;entryY=0;entryDx=0;entryDy=0;entryPerimeter=0;" edge="1" parent="1" source="WtT8hOTgRpXNHZC3K_eX-59" target="WtT8hOTgRpXNHZC3K_eX-48">
          <mxGeometry relative="1" as="geometry">
            <Array as="points">
              <mxPoint x="795" y="1360" />
            </Array>
          </mxGeometry>
        </mxCell>
        <mxCell id="WtT8hOTgRpXNHZC3K_eX-59" value="" style="sketch=0;outlineConnect=0;fontColor=#232F3E;gradientColor=none;fillColor=#232F3D;strokeColor=none;dashed=0;verticalLabelPosition=bottom;verticalAlign=top;align=center;html=1;fontSize=12;fontStyle=0;aspect=fixed;pointerEvents=1;shape=mxgraph.aws4.client;" vertex="1" parent="1">
          <mxGeometry x="664" y="1330" width="78" height="76" as="geometry" />
        </mxCell>
        <mxCell id="WtT8hOTgRpXNHZC3K_eX-65" value="HTTP over private VPC" style="edgeStyle=orthogonalEdgeStyle;rounded=0;orthogonalLoop=1;jettySize=auto;html=1;" edge="1" parent="1" source="WtT8hOTgRpXNHZC3K_eX-63" target="WtT8hOTgRpXNHZC3K_eX-64">
          <mxGeometry relative="1" as="geometry">
            <Array as="points">
              <mxPoint x="351" y="1857" />
            </Array>
          </mxGeometry>
        </mxCell>
        <mxCell id="WtT8hOTgRpXNHZC3K_eX-67" value="HTTP over private VPC" style="edgeStyle=orthogonalEdgeStyle;rounded=0;orthogonalLoop=1;jettySize=auto;html=1;entryX=0;entryY=0.5;entryDx=0;entryDy=0;entryPerimeter=0;" edge="1" parent="1" source="WtT8hOTgRpXNHZC3K_eX-63" target="WtT8hOTgRpXNHZC3K_eX-66">
          <mxGeometry relative="1" as="geometry">
            <Array as="points">
              <mxPoint x="351" y="2027" />
              <mxPoint x="518" y="2027" />
            </Array>
          </mxGeometry>
        </mxCell>
        <mxCell id="WtT8hOTgRpXNHZC3K_eX-63" value="ALB" style="sketch=0;outlineConnect=0;fontColor=#232F3E;gradientColor=none;fillColor=#8C4FFF;strokeColor=none;dashed=0;verticalLabelPosition=bottom;verticalAlign=top;align=right;html=1;fontSize=12;fontStyle=0;aspect=fixed;pointerEvents=1;shape=mxgraph.aws4.application_load_balancer;" vertex="1" parent="1">
          <mxGeometry x="312" y="1890" width="78" height="78" as="geometry" />
        </mxCell>
        <mxCell id="WtT8hOTgRpXNHZC3K_eX-64" value="target group for&lt;br&gt;www.domain-a.com" style="outlineConnect=0;dashed=0;verticalLabelPosition=bottom;verticalAlign=top;align=center;html=1;shape=mxgraph.aws3.ec2;fillColor=#F58534;gradientColor=none;" vertex="1" parent="1">
          <mxGeometry x="643.5" y="1810" width="76.5" height="93" as="geometry" />
        </mxCell>
        <mxCell id="WtT8hOTgRpXNHZC3K_eX-66" value="target group for&lt;br&gt;www.domain-b.com" style="outlineConnect=0;dashed=0;verticalLabelPosition=bottom;verticalAlign=top;align=center;html=1;shape=mxgraph.aws3.ec2;fillColor=#F58534;gradientColor=none;" vertex="1" parent="1">
          <mxGeometry x="646" y="1980" width="76.5" height="93" as="geometry" />
        </mxCell>
        <mxCell id="WtT8hOTgRpXNHZC3K_eX-69" value="HTTPS www.domain-a.com" style="edgeStyle=orthogonalEdgeStyle;rounded=0;orthogonalLoop=1;jettySize=auto;html=1;entryX=-0.064;entryY=0.231;entryDx=0;entryDy=0;entryPerimeter=0;" edge="1" parent="1" source="WtT8hOTgRpXNHZC3K_eX-68" target="WtT8hOTgRpXNHZC3K_eX-63">
          <mxGeometry x="0.2305" y="-12" relative="1" as="geometry">
            <mxPoint as="offset" />
          </mxGeometry>
        </mxCell>
        <mxCell id="WtT8hOTgRpXNHZC3K_eX-68" value="" style="sketch=0;outlineConnect=0;fontColor=#232F3E;gradientColor=none;fillColor=#232F3D;strokeColor=none;dashed=0;verticalLabelPosition=bottom;verticalAlign=top;align=center;html=1;fontSize=12;fontStyle=0;aspect=fixed;pointerEvents=1;shape=mxgraph.aws4.client;" vertex="1" parent="1">
          <mxGeometry x="36" y="1818.5" width="78" height="76" as="geometry" />
        </mxCell>
        <mxCell id="WtT8hOTgRpXNHZC3K_eX-70" value="SSL cert&lt;br&gt;www.domain-a.com" style="sketch=0;outlineConnect=0;fontColor=#232F3E;gradientColor=none;fillColor=#DD344C;strokeColor=none;dashed=0;verticalLabelPosition=bottom;verticalAlign=top;align=center;html=1;fontSize=12;fontStyle=0;aspect=fixed;pointerEvents=1;shape=mxgraph.aws4.certificate_manager_2;" vertex="1" parent="1">
          <mxGeometry x="240" y="1780" width="78" height="72" as="geometry" />
        </mxCell>
        <mxCell id="WtT8hOTgRpXNHZC3K_eX-72" value="HTTPS www.domain-b.com" style="edgeStyle=orthogonalEdgeStyle;rounded=0;orthogonalLoop=1;jettySize=auto;html=1;entryX=-0.051;entryY=0.821;entryDx=0;entryDy=0;entryPerimeter=0;" edge="1" parent="1" source="WtT8hOTgRpXNHZC3K_eX-71" target="WtT8hOTgRpXNHZC3K_eX-63">
          <mxGeometry x="0.2654" y="14" relative="1" as="geometry">
            <Array as="points">
              <mxPoint x="210" y="2027" />
              <mxPoint x="210" y="1954" />
            </Array>
            <mxPoint as="offset" />
          </mxGeometry>
        </mxCell>
        <mxCell id="WtT8hOTgRpXNHZC3K_eX-71" value="" style="sketch=0;outlineConnect=0;fontColor=#232F3E;gradientColor=none;fillColor=#232F3D;strokeColor=none;dashed=0;verticalLabelPosition=bottom;verticalAlign=top;align=center;html=1;fontSize=12;fontStyle=0;aspect=fixed;pointerEvents=1;shape=mxgraph.aws4.client;" vertex="1" parent="1">
          <mxGeometry x="36" y="1988.5" width="78" height="76" as="geometry" />
        </mxCell>
        <mxCell id="WtT8hOTgRpXNHZC3K_eX-73" value="SSL cert&lt;br&gt;www.domain-b.com" style="sketch=0;outlineConnect=0;fontColor=#232F3E;gradientColor=none;fillColor=#DD344C;strokeColor=none;dashed=0;verticalLabelPosition=bottom;verticalAlign=top;align=center;html=1;fontSize=12;fontStyle=0;aspect=fixed;pointerEvents=1;shape=mxgraph.aws4.certificate_manager_2;" vertex="1" parent="1">
          <mxGeometry x="240" y="1980" width="78" height="72" as="geometry" />
        </mxCell>
      </root>
    </mxGraphModel>
  </diagram>
</mxfile>
